Jump_normalized_Precision Landing12_filtered_grf
version=1
nRows=25
nColumns=37
inDegrees=yes
endheader
time		1_ground_force_vx		1_ground_force_vy		1_ground_force_vz		1_ground_force_px		1_ground_force_py		1_ground_force_pz		1_ground_torque_x		1_ground_torque_y		1_ground_torque_z		2_ground_force_vx		2_ground_force_vy		2_ground_force_vz		2_ground_force_px		2_ground_force_py		2_ground_force_pz		2_ground_torque_x		2_ground_torque_y		2_ground_torque_z		3_ground_force_vx		3_ground_force_vy		3_ground_force_vz		3_ground_force_px		3_ground_force_py		3_ground_force_pz		3_ground_torque_x		3_ground_torque_y		3_ground_torque_z		4_ground_force_vx		4_ground_force_vy		4_ground_force_vz		4_ground_force_px		4_ground_force_py		4_ground_force_pz		4_ground_torque_x		4_ground_torque_y		4_ground_torque_z		
0.441167		-0.000000		0.000000		0.000000		0.104050		0.000000		0.350637		0.000000		0.000000		-0.000000		0.000000		0.000000		0.000000		-0.146138		0.000000		0.395224		0.000000		-0.000000		0.000000		-17.937587		433.107498		-77.202745		0.352155		1.254703		1.894583		1.093249		-26.396749		4.705305		-9.120471		297.641660		-62.765470		-0.289290		1.264326		1.904775		-0.630234		20.567366		-4.337159		
0.444980		-0.000000		-0.000000		-0.000000		0.104050		0.000000		0.350637		-0.000000		-0.000000		0.000000		0.000000		-0.000000		0.000000		-0.146138		0.000000		0.395224		0.000000		-0.000000		-0.000000		-18.572919		426.663573		-81.941410		0.352169		1.254714		1.894647		1.134106		-26.053061		5.003532		-8.935564		276.310437		-61.030130		-0.289300		1.264369		1.904764		-0.613499		18.970962		-4.190215		
0.448793		-0.000000		-0.000000		-0.000000		0.104050		0.000000		0.350637		-0.000000		-0.000000		0.000000		-0.000000		-0.000000		-0.000000		-0.146138		0.000000		0.395224		-0.000000		0.000000		-0.000000		-19.122433		418.989621		-86.496696		0.352188		1.254728		1.894699		1.167808		-25.587711		5.282355		-8.787130		252.728395		-58.468578		-0.289317		1.264409		1.904740		-0.598178		17.204369		-3.980214		
0.452606		0.000000		-0.000000		-0.000000		0.104050		0.000000		0.350637		-0.000000		-0.000000		0.000000		-0.000000		-0.000000		-0.000000		-0.146138		0.000000		0.395224		-0.000000		0.000000		-0.000000		-19.565869		409.938114		-90.999239		0.352217		1.254750		1.894734		1.193083		-24.997129		5.548932		-8.871312		227.375427		-54.959767		-0.289338		1.264442		1.904699		-0.597468		15.313432		-3.701462		
0.456419		0.000000		-0.000000		-0.000000		0.104050		0.000000		0.350637		-0.000000		-0.000000		0.000000		-0.000000		-0.000000		-0.000000		-0.146138		0.000000		0.395224		-0.000000		0.000000		-0.000000		-19.882640		399.364117		-95.422012		0.352261		1.254783		1.894746		1.208865		-24.281355		5.801659		-9.340079		201.020669		-50.319372		-0.289359		1.264469		1.904635		-0.620510		13.354943		-3.342998		
0.460232		0.000000		0.000000		0.000000		0.104050		0.000000		0.350637		0.000000		-0.000000		-0.000000		-0.000000		-0.000000		-0.000000		-0.146138		0.000000		0.395224		-0.000000		0.000000		0.000000		-20.010292		387.212974		-99.518485		0.352311		1.254821		1.894743		1.211608		-23.445470		6.025765		-10.216193		174.493212		-44.317662		-0.289378		1.264494		1.904546		-0.666430		11.382923		-2.891027		
0.464045		0.000000		0.000000		0.000000		0.104050		0.000000		0.350637		0.000000		0.000000		-0.000000		-0.000000		0.000000		-0.000000		-0.146138		0.000000		0.395224		-0.000000		0.000000		0.000000		-19.880765		373.526393		-102.944803		0.352351		1.254853		1.894730		1.197383		-22.496830		6.200179		-11.386856		148.436099		-36.774757		-0.289393		1.264525		1.904430		-0.723899		9.436684		-2.337926		
0.467859		-0.000000		0.000000		0.000000		0.104050		0.000000		0.350637		0.000000		0.000000		-0.000000		0.000000		0.000000		0.000000		-0.146138		0.000000		0.395224		0.000000		-0.000000		0.000000		-19.468866		358.362332		-105.367402		0.352367		1.254875		1.894716		1.164779		-21.440041		6.303893		-12.652420		123.216459		-27.725970		-0.289404		1.264564		1.904292		-0.774080		7.538797		-1.696408		
0.471672		-0.000000		0.000000		0.000000		0.104050		0.000000		0.350637		0.000000		0.000000		-0.000000		0.000000		0.000000		0.000000		-0.146138		0.000000		0.395224		0.000000		-0.000000		0.000000		-18.812820		341.737705		-106.537382		0.352343		1.254882		1.894695		1.116279		-20.277376		6.321498		-13.805778		98.972273		-17.708421		-0.289410		1.264610		1.904133		-0.795589		5.704022		-1.020682		
0.475485		-0.000000		-0.000000		0.000000		0.104050		0.000000		0.350637		-0.000000		0.000000		0.000000		0.000000		0.000000		0.000000		-0.146138		0.000000		0.395224		0.000000		-0.000000		0.000000		-17.971305		323.550953		-106.345145		0.352288		1.254878		1.894656		1.055739		-19.007274		6.247333		-14.705645		75.815778		-7.861231		-0.289415		1.264658		1.903961		-0.768197		3.960571		-0.410689		
0.479298		-0.000000		-0.000000		-0.000000		0.104050		0.000000		0.350637		-0.000000		-0.000000		0.000000		0.000000		-0.000000		0.000000		-0.146138		0.000000		0.395224		0.000000		-0.000000		-0.000000		-16.971888		303.631920		-104.743432		0.352219		1.254869		1.894584		0.985330		-17.627839		6.081033		-15.309706		54.096170		0.214819		-0.289421		1.264701		1.903780		-0.671467		2.373563		0.009134		
0.483111		0.000000		-0.000000		-0.000000		0.104050		0.000000		0.350637		-0.000000		-0.000000		0.000000		-0.000000		-0.000000		-0.000000		-0.146138		0.000000		0.395224		-0.000000		0.000000		-0.000000		-15.791408		281.940530		-101.699121		0.352159		1.254866		1.894471		0.904407		-16.147323		5.824510		-15.662939		34.575774		5.080182		-0.289430		1.264741		1.903599		-0.477615		1.055269		0.154772		
0.486924		0.000000		-0.000000		-0.000000		0.104050		0.000000		0.350637		-0.000000		-0.000000		0.000000		-0.000000		-0.000000		-0.000000		-0.146138		0.000000		0.395224		-0.000000		0.000000		-0.000000		-14.364809		258.744903		-97.079901		0.352122		1.254872		1.894318		0.810137		-14.592517		5.475038		-15.839065		18.431905		6.187291		-0.289448		1.264777		1.903424		-0.157126		0.183587		0.061406		
0.490737		0.000000		0.000000		-0.000000		0.104050		0.000000		0.350637		0.000000		-0.000000		-0.000000		-0.000000		-0.000000		-0.000000		-0.146138		0.000000		0.395224		-0.000000		0.000000		-0.000000		-12.631758		234.707600		-90.678986		0.352105		1.254889		1.894136		0.700318		-13.012401		5.027316		-15.893719		6.819890		4.311162		-0.289468		1.264813		1.903265		0.134790		-0.057532		-0.036466		
0.494551		0.000000		0.000000		0.000000		0.104050		0.000000		0.350637		0.000000		0.000000		-0.000000		-0.000000		0.000000		-0.000000		-0.146138		0.000000		0.395224		-0.000000		0.000000		0.000000		-10.584101		210.688887		-82.337263		0.352095		1.254916		1.893932		0.575978		-11.465483		4.480713		-15.855571		0.137567		1.135339		-0.289488		1.264847		1.903123		0.066175		-0.000649		-0.004796		
0.498364		0.000000		0.000000		0.000000		0.104050		0.000000		0.350637		0.000000		0.000000		-0.000000		0.000000		0.000000		0.000000		-0.146138		0.000000		0.395224		0.000000		-0.000000		0.000000		-8.279079		187.368160		-72.093595		0.352086		1.254954		1.893709		0.441735		-9.997028		3.846562		-15.754442		-2.299003		-1.728396		-0.289497		1.264875		1.902999		-0.084093		-0.012290		-0.009275		
0.502177		-0.000000		0.000000		0.000000		0.104050		0.000000		0.350637		0.000000		0.000000		-0.000000		0.000000		0.000000		0.000000		-0.146138		0.000000		0.395224		0.000000		-0.000000		0.000000		-5.822101		164.886644		-60.338222		0.352083		1.254998		1.893467		0.304253		-8.616460		3.153105		-15.649233		-2.030192		-3.415568		-0.289487		1.264895		1.902884		-0.115774		-0.015025		-0.025264		
0.505990		-0.000000		0.000000		0.000000		0.104050		0.000000		0.350637		0.000000		0.000000		-0.000000		0.000000		0.000000		0.000000		-0.146138		0.000000		0.395224		0.000000		-0.000000		0.000000		-3.328030		142.742185		-47.800933		0.352092		1.255043		1.893212		1.116374		-13.984782		-17.618749		-15.618518		-0.695190		-3.869737		-0.289455		1.264905		1.902763		-0.074262		-0.003307		-0.018400		
0.509803		-0.000000		-0.000000		-0.000000		0.104050		0.000000		0.350637		-0.000000		-0.000000		0.000000		0.000000		-0.000000		0.000000		-0.146138		0.000000		0.395224		0.000000		-0.000000		-0.000000		-0.919601		120.039039		-35.470550		0.352107		1.255080		1.892960		1.172694		-11.015655		-15.364365		-15.721168		0.548133		-3.521906		-0.289410		1.264906		1.902630		-0.017803		0.000608		-0.003996		
0.513616		-0.000000		-0.000000		-0.000000		0.104050		0.000000		0.350637		-0.000000		-0.000000		0.000000		-0.000000		-0.000000		-0.000000		-0.146138		0.000000		0.395224		-0.000000		0.000000		-0.000000		1.265884		96.113797		-24.346601		0.352116		1.255096		1.892730		1.117343		-8.047746		-12.399550		-15.948941		1.229597		-2.913605		-0.289361		1.264900		1.902474		0.021303		-0.001644		0.003888		
0.517429		0.000000		-0.000000		-0.000000		0.104050		0.000000		0.350637		-0.000000		-0.000000		0.000000		-0.000000		-0.000000		-0.000000		-0.146138		0.000000		0.395224		-0.000000		0.000000		-0.000000		3.054042		71.205827		-15.270064		0.352114		1.255087		1.892526		0.954175		-5.379039		-9.179729		-16.219893		1.393252		-2.417729		-0.289318		1.264888		1.902299		0.034996		-0.003006		0.005216		
0.521242		0.000000		-0.000000		-0.000000		0.104050		0.000000		0.350637		-0.000000		-0.000000		0.000000		-0.000000		-0.000000		-0.000000		-0.146138		0.000000		0.395224		-0.000000		0.000000		-0.000000		4.275300		46.881598		-8.643772		0.352116		1.255059		1.892334		0.706064		-3.168617		-5.957835		-16.420258		1.287982		-2.173324		-0.289287		1.264872		1.902104		0.029037		-0.002278		0.003844		
0.525056		0.000000		0.000000		0.000000		0.104050		0.000000		0.350637		0.000000		0.000000		-0.000000		-0.000000		-0.000000		-0.000000		-0.146138		0.000000		0.395224		-0.000000		0.000000		0.000000		4.841978		25.641185		-4.366111		0.352144		1.255030		1.892135		0.426179		-1.528307		-3.129862		-16.472622		1.126466		-2.134753		-0.289265		1.264855		1.901897		0.013712		-0.000938		0.001777		
0.528869		0.000000		0.000000		0.000000		0.104050		0.000000		0.350637		0.000000		0.000000		-0.000000		-0.000000		0.000000		-0.000000		-0.146138		0.000000		0.395224		-0.000000		0.000000		0.000000		4.819081		9.846496		-1.970452		0.352225		1.255014		1.891910		0.181718		-0.482818		-1.057618		-16.368762		0.998932		-2.185671		-0.289250		1.264845		1.901685		-0.001903		0.000116		-0.000255		
0.532682		-0.000000		0.000000		0.000000		0.104050		0.000000		0.350637		0.000000		0.000000		-0.000000		0.000000		0.000000		0.000000		-0.146138		0.000000		0.395224		0.000000		-0.000000		0.000000		4.423382		0.474819		-0.847499		0.352349		1.255014		1.891664		0.021975		0.047403		0.120344		-16.165401		0.901987		-2.211395		-0.289239		1.264849		1.901477		-0.012159		0.000679		-0.001663		
